SplineFontDB: 3.0
FontName: GOST2.304-81TypeA
FullName: GOST 2.304-81 Type A
FamilyName: GOST 2.304-81
Weight: Regular
Copyright: 
Version: 01.00.0000
StrokeWidth: 100
ItalicAngle: 0
UnderlinePosition: -100
UnderlineWidth: 100
Ascent: 1800
Descent: 400
InvalidEm: 0
LayerCount: 2
Layer: 0 0 "Back" 1
Layer: 1 0 "Fore" 0
StrokedFont: 1
UniqueID: 4500000
UseUniqueID: 1
BaseHoriz: 4 'ideo' 'idtp' 'math' 'romn'
BaseScript: 'DFLT' 3  -400 1400 0 0
FSType: 0
OS2Version: 0
OS2_WeightWidthSlopeOnly: 1
OS2_UseTypoMetrics: 0
CreationTime: 1422632559
ModificationTime: 1428768756
PfmFamily: 33
TTFWeight: 400
TTFWidth: 5
LineGap: 0
VLineGap: 0
Panose: 2 0 5 3 0 0 2 4 0 3
OS2TypoAscent: 1800
OS2TypoAOffset: 0
OS2TypoDescent: -400
OS2TypoDOffset: 0
OS2TypoLinegap: 0
OS2WinAscent: 1800
OS2WinAOffset: 0
OS2WinDescent: 500
OS2WinDOffset: 0
HheadAscent: 1800
HheadAOffset: 0
HheadDescent: -400
HheadDOffset: 0
OS2SubXSize: 1430
OS2SubYSize: 1562
OS2SubXOff: -197
OS2SubYOff: 500
OS2SupXSize: 1430
OS2SupYSize: 1562
OS2SupXOff: 678
OS2SupYOff: 900
OS2StrikeYSize: 100
OS2StrikeYPos: 500
OS2CapHeight: 1400
OS2XHeight: 1000
OS2FamilyClass: 2048
OS2Vendor: 'PfEd'
Lookup: 4 0 1 "Standard Ligatures" { "Standard Ligatures"  } ['liga' ('DFLT' <'dflt' > 'cyrl' <'dflt' > 'grek' <'dflt' > 'latn' <'LTH ' 'ROM ' 'TRK ' 'dflt' > ) ]
Lookup: 1 0 0 "Alternative Three" { "Alternative Three" ("AltThree") } ['cv01' ('DFLT' <'dflt' > 'cyrl' <'dflt' > 'grek' <'dflt' > 'latn' <'LTH ' 'ROM ' 'TRK ' 'dflt' > ) ]
Lookup: 1 0 0 "Slashed Zero" { "Slashed Zero" ("SlashedZero") } ['zero' ('DFLT' <'dflt' > 'cyrl' <'dflt' > 'grek' <'dflt' > 'latn' <'LTH ' 'ROM ' 'TRK ' 'dflt' > ) ]
Lookup: 1 0 0 "Alternative Roman V" { "Alternative Roman V" ("AltRomanV") } ['cv02' ('latn' <'ROM ' 'dflt' > ) ]
Lookup: 1 0 0 "Dotless Forms" { "Dotless Forms"  } ['dtls' ('DFLT' <'dflt' > 'cyrl' <'dflt' > 'grek' <'dflt' > 'latn' <'LTH ' 'ROM ' 'TRK ' 'dflt' > ) ]

StartChar: .notdef
Encoding: 1114112 -1 0
Width: 900
Flags: MW
LayerCount: 2
Back
Fore
SplineSet
150 50 m 1
 750 50 l 1
 750 1350 l 1
 150 1350 l 1
 150 50 l 1
EndSplineSet
EndChar

StartChar: uni26AC
Encoding: 9900 9900 1
Width: 800
Flags: MW
LayerCount: 2
Back
Fore
SplineSet
400 850 m 135
 263 850 150 962 150 1099 c 135
 150 1236 263 1350 400 1350 c 135
 537 1350 650 1236 650 1099 c 135
 650 962 537 850 400 850 c 135
EndSplineSet
EndChar

StartChar: exclam
Encoding: 33 33 4
Width: 300
Flags: MW
LayerCount: 2
Back
Fore
SplineSet
150 1350 m 25
 150 350 l 1049
EndSplineSet
Refer: 17 46 N 1 0 0 1 0 0 2
EndChar

StartChar: numbersign
Encoding: 35 35 6
Width: 900
Flags: MW
LayerCount: 2
Back
Fore
SplineSet
300 1350 m 25
 300 50 l 1049
150 400 m 25
 750 400 l 1049
150 1000 m 25
 750 1000 l 1049
600 1350 m 25
 600 50 l 1049
EndSplineSet
EndChar

StartChar: dollar
Encoding: 36 36 7
Width: 900
Flags: MW
LayerCount: 2
Back
Fore
SplineSet
450 1550 m 25
 450 -150 l 1025
EndSplineSet
Refer: 54 83 N 1 0 0 1 0 0 2
EndChar

StartChar: ampersand
Encoding: 38 38 9
Width: 1100
Flags: MW
LayerCount: 2
Back
Fore
SplineSet
950 450 m 0
 759 243 663 139 662 138 c 0
 603 79 533 50 450 50 c 131
 286 50 150 186 150 350 c 3
 150 411 164 464 193 507 c 18
 564 1067 l 29
 588 1098 600 1134 600 1174 c 3
 600 1272 522 1350 425 1350 c 131
 328 1350 250 1270 250 1174 c 3
 250 1133 265 1099 287 1066 c 26
 950 50 l 1025
EndSplineSet
EndChar

StartChar: quotesingle
Encoding: 39 39 10
Width: 250
Flags: MW
LayerCount: 2
Back
Fore
SplineSet
150 1350 m 25
 100 1150 l 1049
EndSplineSet
EndChar

StartChar: parenleft
Encoding: 40 40 11
Width: 400
Flags: MW
LayerCount: 2
Back
Fore
SplineSet
250 -50 m 4
 183 223 150 473 150 700 c 155
 150 927 183 1177 250 1450 c 1024
EndSplineSet
EndChar

StartChar: asterisk
Encoding: 42 42 13
Width: 900
Flags: MW
LayerCount: 2
Back
Fore
SplineSet
250 1150 m 25
 650 1150 l 1053
350 950 m 25
 550 1350 l 1049
350 1350 m 25
 550 950 l 1049
EndSplineSet
EndChar

StartChar: plus
Encoding: 43 43 14
Width: 800
Flags: MW
LayerCount: 2
Back
Fore
SplineSet
400 750 m 25
 400 250 l 1049
150 500 m 25
 650 500 l 1053
EndSplineSet
EndChar

StartChar: comma
Encoding: 44 44 15
Width: 300
Flags: MW
LayerCount: 2
Back
Fore
SplineSet
150 50 m 25
 100 -150 l 1053
EndSplineSet
EndChar

StartChar: hyphen
Encoding: 45 45 16
Width: 800
Flags: MW
LayerCount: 2
Back
Fore
SplineSet
150 500 m 25
 650 500 l 1049
EndSplineSet
EndChar

StartChar: period
Encoding: 46 46 17
Width: 300
Flags: MW
LayerCount: 2
Back
Fore
SplineSet
150 50 m 1049,0,-1
EndSplineSet
EndChar

StartChar: slash
Encoding: 47 47 18
Width: 1100
Flags: MW
LayerCount: 2
Back
Fore
SplineSet
950 1350 m 25
 150 50 l 1053
EndSplineSet
EndChar

StartChar: zero
Encoding: 48 48 19
Width: 900
Flags: MW
LayerCount: 2
Back
Fore
SplineSet
450 50 m 131
 614 50 750 186 750 350 c 2
 750 1050 l 18
 750 1214 614 1350 450 1350 c 131
 286 1350 150 1214 150 1050 c 2
 150 350 l 2
 150 186 286 50 450 50 c 131
EndSplineSet
Substitution2: "Slashed Zero" zero.SlashedZero
EndChar

StartChar: one
Encoding: 49 49 20
Width: 600
Flags: MW
LayerCount: 2
Back
Fore
SplineSet
150 1050 m 25
 449 1350 l 25
 450 1350 l 25
 450 50 l 25
 449 50 l 1053
EndSplineSet
EndChar

StartChar: two
Encoding: 50 50 21
Width: 900
Flags: MW
LayerCount: 2
Back
Fore
SplineSet
150 50 m 25
 750 50 l 1049
166 1150 m 0
 204 1259 319 1350 450 1350 c 128
 614 1350 750 1214 750 1050 c 0
 750 995 739 944 710 900 c 10
 150 51 l 1049
EndSplineSet
EndChar

StartChar: three
Encoding: 51 51 22
Width: 800
Flags: MW
LayerCount: 2
Back
Fore
SplineSet
150 1350 m 17
 300 1350 l 2
 464 1350 600 1214 600 1050 c 128
 600 886 517 751 350 751 c 1024
350 749 m 0
 525.580173998 749 650 560.974559235 650 400 c 4
 650 202 494 50 300 50 c 2
 150 50 l 1049
EndSplineSet
Substitution2: "Alternative Three" three.AltThree
EndChar

StartChar: four
Encoding: 52 52 23
Width: 900
Flags: MW
LayerCount: 2
Back
Fore
SplineSet
550 650 m 25
 550 50 l 25
 549 50 l 1053
750 350 m 25
 150 350 l 25
 400 1350 l 25
 401 1350 l 1049
EndSplineSet
EndChar

StartChar: five
Encoding: 53 53 24
Width: 800
Flags: MW
LayerCount: 2
Back
Fore
SplineSet
350 750 m 0
 525 750 650 581 650 400 c 128
 650 198 520 50 312 50 c 2
 150 50 l 1049
650 1350 m 25
 150 1350 l 1
 150 750 l 1
 350 750 l 1025
EndSplineSet
EndChar

StartChar: six
Encoding: 54 54 25
Width: 900
Flags: MW
LayerCount: 2
Back
Fore
SplineSet
150 750 m 17
 450 750 l 26
 624 750 750 580 750 400 c 0
 750 222 625 50 450 50 c 0
 276 50 150 221 150 400 c 2
 150 800 l 26
 150 845 177 917 232 1017 c 0
 299 1139 428 1283 550 1350 c 1024
EndSplineSet
EndChar

StartChar: seven
Encoding: 55 55 26
Width: 900
Flags: MW
LayerCount: 2
Back
Fore
SplineSet
150 1200 m 25
 150 1350 l 25
 750 1350 l 25
 450 50 l 1049
EndSplineSet
EndChar

StartChar: eight
Encoding: 56 56 27
Width: 1000
Flags: MW
LayerCount: 2
Back
Fore
SplineSet
500 50 m 128
 302 50 150 202 150 400 c 128
 150 600 301 750 500 750 c 132
 701 750 850 598 850 400 c 128
 850 201 697 50 500 50 c 128
500 750 m 128
 336 750 200 886 200 1050 c 128
 200 1214 336 1350 500 1350 c 128
 664 1350 800 1214 800 1050 c 128
 800 886 664 750 500 750 c 128
EndSplineSet
EndChar

StartChar: less
Encoding: 60 60 31
Width: 800
Flags: MW
LayerCount: 2
Back
Fore
SplineSet
650 750 m 25
 150 500 l 25
 650 250 l 1049
EndSplineSet
EndChar

StartChar: question
Encoding: 63 63 34
Width: 800
Flags: MW
LayerCount: 2
Back
Fore
SplineSet
150 1249 m 0
 189 1316 272 1350 400 1350 c 0
 538 1350 650 1237 650 1100 c 0
 650 964 537 883 464 814 c 24
 421 772 400 717 400 650 c 26
 400 350 l 1049
EndSplineSet
Refer: 17 46 N 1 0 0 1 250 1 2
EndChar

StartChar: at
Encoding: 64 64 35
Width: 1600
Flags: MW
LayerCount: 2
Back
Fore
SplineSet
1151 50 m 4
 1318 50 1450 185 1450 350 c 2
 1450 700 l 2
 1450 894 1363 1056 1260 1159 c 0
 1157 1262 995 1350 800 1350 c 0
 605 1350 443 1262 340 1159 c 0
 238 1056 150 894 150 700 c 2
 150 300 l 2
 150 106 238 -56 340 -159 c 0
 443 -262 605 -350 800 -350 c 1024
EndSplineSet
Refer: 66 97 N 1 0 0 1 400 0 2
EndChar

StartChar: A
Encoding: 65 65 36
Width: 1000
Flags: MW
AnchorPoint: "Bottom" 500 -150 basechar 0
AnchorPoint: "Ogonek" 850 0 basechar 0
AnchorPoint: "Top" 500 1650 basechar 0
LayerCount: 2
Back
Fore
SplineSet
850 50 m 25
 501 1350 l 1049
499 1350 m 25
 150 50 l 1025
259 450 m 1
 742 450 l 1025
EndSplineSet
EndChar

StartChar: B
Encoding: 66 66 37
Width: 900
Flags: MW
AnchorPoint: "Bottom" 400 -150 basechar 0
AnchorPoint: "Top" 400 1650 basechar 0
LayerCount: 2
Back
Fore
SplineSet
150 750 m 1
 400 750 l 2
 564 750 700 886 700 1050 c 128
 700 1214 565 1350 400 1350 c 2
 150 1350 l 25
 150 50 l 1
 400 50 l 18
 598 50 750 202 750 400 c 0
 750 597 600 750 400 750 c 1024
EndSplineSet
EndChar

StartChar: C
Encoding: 67 67 38
Width: 800
Flags: MW
AnchorPoint: "Top" 400 1650 basechar 0
LayerCount: 2
Back
Fore
SplineSet
650 1350 m 25
 450 1350 l 2
 286 1350 150 1214 150 1050 c 2
 150 351 l 2
 150 187 286 50 450 50 c 2
 650 50 l 1049
EndSplineSet
EndChar

StartChar: D
Encoding: 68 68 39
Width: 900
Flags: MW
AnchorPoint: "Bottom" 400 -150 basechar 0
AnchorPoint: "Top" 400 1650 basechar 0
LayerCount: 2
Back
Fore
SplineSet
750 351 m 2
 750 187 614 50 450 50 c 2
 150 50 l 17
 150 1350 l 1
 450 1350 l 2
 614 1350 750 1214 750 1050 c 2
 750 351 l 2
EndSplineSet
EndChar

StartChar: E
Encoding: 69 69 40
Width: 800
Flags: MW
AnchorPoint: "Bottom" 400 -150 basechar 0
AnchorPoint: "Ogonek" 650 0 basechar 0
AnchorPoint: "Top" 400 1650 basechar 0
LayerCount: 2
Back
Fore
SplineSet
450 750 m 25
 150 750 l 1049
650 1350 m 25
 150 1350 l 25
 150 50 l 25
 650 50 l 1049
EndSplineSet
EndChar

StartChar: F
Encoding: 70 70 41
Width: 800
Flags: MW
LayerCount: 2
Back
Fore
SplineSet
650 750 m 29
 150 750 l 1049
650 1350 m 25
 150 1350 l 25
 150 50 l 1049
EndSplineSet
EndChar

StartChar: G
Encoding: 71 71 42
Width: 900
Flags: MW
AnchorPoint: "Bottom" 500 -150 basechar 0
AnchorPoint: "Top" 500 1650 basechar 0
LayerCount: 2
Back
Fore
SplineSet
750 1350 m 1
 450 1350 l 2
 286 1350 150 1214 150 1050 c 2
 150 350 l 2
 150 186 286 50 450 50 c 2
 750 50 l 1
 750 750 l 9
 550 750 l 1041
EndSplineSet
EndChar

StartChar: H
Encoding: 72 72 43
Width: 900
Flags: MW
AnchorPoint: "Bottom" 450 -150 basechar 0
AnchorPoint: "Top" 450 1650 basechar 0
LayerCount: 2
Back
Fore
SplineSet
150 750 m 25
 750 750 l 1049
750 1350 m 17
 750 50 l 1033
150 1350 m 17
 150 50 l 1033
EndSplineSet
EndChar

StartChar: I
Encoding: 73 73 44
Width: 300
Flags: MW
AnchorPoint: "Ogonek" 150 0 basechar 0
AnchorPoint: "Top" 150 1650 basechar 0
LayerCount: 2
Back
Fore
SplineSet
150 1350 m 25
 150 50 l 1049
EndSplineSet
EndChar

StartChar: J
Encoding: 74 74 45
Width: 700
Flags: MW
LayerCount: 2
Back
Fore
SplineSet
150 50 m 29
 250 50 l 6
 417 50 550 170 550 350 c 6
 550 1351 l 1053
EndSplineSet
EndChar

StartChar: K
Encoding: 75 75 46
Width: 900
Flags: MW
AnchorPoint: "Bottom" 450 -150 basechar 0
LayerCount: 2
Back
Fore
SplineSet
750 50 m 25
 344 807 l 1049
750 1350 m 25
 150 550 l 1049
150 1350 m 25
 150 50 l 1049
EndSplineSet
EndChar

StartChar: L
Encoding: 76 76 47
Width: 700
Flags: MW
AnchorPoint: "Right" 350 750 basechar 0
AnchorPoint: "TopRight" 351 1350 basechar 0
AnchorPoint: "Bottom" 350 -150 basechar 0
AnchorPoint: "Top" 150 1650 basechar 0
LayerCount: 2
Back
Fore
SplineSet
550 50 m 25
 150 50 l 1
 150 1350 l 1049
EndSplineSet
EndChar

StartChar: M
Encoding: 77 77 48
Width: 1100
Flags: MW
AnchorPoint: "Top" 550 1650 basechar 0
AnchorPoint: "Bottom" 550 -150 basechar 0
LayerCount: 2
Back
Fore
SplineSet
948 1350 m 25
 552 650 l 1049
950 50 m 25
 950 1350 l 1049
150 50 m 25
 150 1350 l 1049
151 1350 m 25
 548 650 l 1049
EndSplineSet
EndChar

StartChar: N
Encoding: 78 78 49
Width: 900
Flags: MW
AnchorPoint: "Bottom" 450 -150 basechar 0
AnchorPoint: "Top" 450 1650 basechar 0
LayerCount: 2
Back
Fore
SplineSet
750 1350 m 25
 750 50 l 1049
150 50 m 25
 150 1350 l 1049
151 1350 m 25
 749 50 l 1049
EndSplineSet
EndChar

StartChar: P
Encoding: 80 80 51
Width: 900
Flags: MW
LayerCount: 2
Back
Fore
SplineSet
150 650 m 1
 400 650 l 2
 601 650 750 803 750 1000 c 0
 750 1199 597 1350 400 1350 c 10
 150 1350 l 1
 150 50 l 1049
EndSplineSet
EndChar

StartChar: Q
Encoding: 81 81 52
Width: 900
Flags: MW
LayerCount: 2
Back
Fore
SplineSet
450 350 m 25
 850 50 l 1053
EndSplineSet
Refer: 19 48 N 1 0 0 1 0 0 2
EndChar

StartChar: R
Encoding: 82 82 53
Width: 900
Flags: MW
AnchorPoint: "Bottom" 400 -150 basechar 0
AnchorPoint: "Top" 400 1650 basechar 0
LayerCount: 2
Back
Fore
SplineSet
750 50 m 25
 400 650 l 1049
EndSplineSet
Refer: 51 80 N 1 0 0 1 0 0 2
EndChar

StartChar: S
Encoding: 83 83 54
Width: 900
Flags: MW
AnchorPoint: "Top" 450 1650 basechar 0
AnchorPoint: "TopRight" 950 1350 basechar 0
AnchorPoint: "Bottom" 450 -150 basechar 0
LayerCount: 2
Back
Fore
SplineSet
150 150 m 0
 237 83 337 50 450 50 c 3
 615 50 750 130 750 281 c 3
 750 366 720 439 661 500 c 2
 226 950 l 2
 175 1002 150 1060 150 1123 c 3
 150 1269 288 1350 450 1350 c 3
 564 1350 664 1317 750 1250 c 1024
EndSplineSet
EndChar

StartChar: T
Encoding: 84 84 55
Width: 900
Flags: MW
AnchorPoint: "Top" 450 1650 basechar 0
AnchorPoint: "Bottom" 450 -150 basechar 0
LayerCount: 2
Back
Fore
SplineSet
450 50 m 25
 450 1350 l 1049
150 1350 m 25
 750 1350 l 1049
EndSplineSet
EndChar

StartChar: U
Encoding: 85 85 56
Width: 900
Flags: MW
AnchorPoint: "TopRight" 950 1350 basechar 0
AnchorPoint: "Ogonek" 350 0 basechar 0
AnchorPoint: "Top" 450 1650 basechar 0
LayerCount: 2
Back
Fore
SplineSet
150 1350 m 1
 150 350 l 2
 150 186 286 50 450 50 c 131
 614 50 750 186 750 350 c 2
 750 1350 l 1041
EndSplineSet
EndChar

StartChar: V
Encoding: 86 86 57
Width: 1000
Flags: MW
LayerCount: 2
Back
Fore
SplineSet
850 1350 m 5
 501 50 l 1053
150 1350 m 29
 499 50 l 1053
EndSplineSet
EndChar

StartChar: W
Encoding: 87 87 58
Width: 1400
Flags: MW
AnchorPoint: "Bottom" 700 -150 basechar 0
AnchorPoint: "Top" 700 1650 basechar 0
LayerCount: 2
Back
Fore
SplineSet
701 950 m 1
 999 50 l 1049
1250 1350 m 25
 1001 50 l 1049
150 1350 m 25
 399 50 l 1049
401 50 m 25
 699 950 l 1049
EndSplineSet
EndChar

StartChar: X
Encoding: 88 88 59
Width: 1000
Flags: MW
LayerCount: 2
Back
Fore
SplineSet
150 50 m 25
 850 1350 l 1053
150 1350 m 25
 850 50 l 1049
EndSplineSet
EndChar

StartChar: Y
Encoding: 89 89 60
Width: 1000
Flags: MW
AnchorPoint: "Top" 500 1650 basechar 0
LayerCount: 2
Back
Fore
SplineSet
500 50 m 29
 500 700 l 1049
150 1350 m 25
 500 700 l 25
 850 1350 l 1049
EndSplineSet
EndChar

StartChar: Z
Encoding: 90 90 61
Width: 900
Flags: MW
AnchorPoint: "Top" 450 1650 basechar 0
LayerCount: 2
Back
Fore
SplineSet
750 50 m 25
 150 50 l 1049
150 1350 m 25
 750 1350 l 1049
750 1349 m 25
 150 51 l 1049
EndSplineSet
EndChar

StartChar: bracketleft
Encoding: 91 91 62
Width: 400
Flags: MW
LayerCount: 2
Back
Fore
SplineSet
250 1450 m 29
 150 1450 l 29
 150 -50 l 29
 250 -50 l 1053
EndSplineSet
EndChar

StartChar: backslash
Encoding: 92 92 63
Width: 1100
Flags: MW
LayerCount: 2
Back
Fore
SplineSet
150 1350 m 25
 950 50 l 1049
EndSplineSet
EndChar

StartChar: a
Encoding: 97 97 66
Width: 900
Flags: MW
AnchorPoint: "Bottom" 400 -150 basechar 0
AnchorPoint: "Ogonek" 750 0 basechar 0
AnchorPoint: "Top" 400 1350 basechar 0
LayerCount: 2
Back
Fore
SplineSet
750 50 m 0
 695 50 650 95 650 150 c 10
 650 300 l 1041
401 50 m 31
 400 50 399 50 399 50 c 259
 262 50 150 163 150 300 c 2
 150 750 l 18
 150 861 239 950 350 950 c 2
 650 950 l 1
 650 300 l 2
 650 166.406157166 539 50 401 50 c 31
EndSplineSet
EndChar

StartChar: c
Encoding: 99 99 68
Width: 700
Flags: MW
AnchorPoint: "Top" 350 1350 basechar 0
LayerCount: 2
Back
Fore
SplineSet
550 950 m 1
 350 950 l 2
 238 950 150 861 150 750 c 2
 150 250 l 2
 150 136 239 50 350 50 c 2
 550 50 l 1025
EndSplineSet
EndChar

StartChar: d
Encoding: 100 100 69
Width: 800
Flags: MW
AnchorPoint: "Bottom" 400 -150 basechar 0
AnchorPoint: "TopRight" 850 1350 basechar 0
AnchorPoint: "Top" 650 1650 basechar 0
LayerCount: 2
Back
Fore
SplineSet
650 950 m 1
 350 950 l 2
 238 950 150 861 150 750 c 2
 150 250 l 2
 150 134 233 50 350 50 c 2
 650 50 l 1
 650 1350 l 1049
EndSplineSet
EndChar

StartChar: e
Encoding: 101 101 70
Width: 800
Flags: MW
AnchorPoint: "Bottom" 400 -150 basechar 0
AnchorPoint: "Ogonek" 650 0 basechar 0
AnchorPoint: "Top" 400 1350 basechar 0
LayerCount: 2
Back
Fore
SplineSet
650 700 m 1049,0,-1
650 50 m 1,1,-1
 350 50 l 2,2,3
 239 50 150 139 150 250 c 10,6,-1
 150 700 l 2,7,8
 150 837 263 950 400 950 c 128,-1,10
 537 950 650 837 650 700 c 2,12,-1
 650 500 l 9,13,-1
 150 500 l 1049,14,-1
EndSplineSet
EndChar

StartChar: f
Encoding: 102 102 71
Width: 600
Flags: MW
LayerCount: 2
Back
Fore
SplineSet
150 950 m 29
 450 950 l 1053
250 50 m 1
 250 1200 l 2
 250 1282 318 1350 400 1350 c 10
 450 1350 l 1049
EndSplineSet
EndChar

StartChar: g
Encoding: 103 103 72
Width: 800
Flags: MW
AnchorPoint: "Top" 400 1350 basechar 0
LayerCount: 2
Back
Fore
SplineSet
650 50 m 1
 350 50 l 2
 238 50 150 139 150 250 c 2
 150 750 l 2
 150 866 233 950 350 950 c 2
 650 950 l 1
 650 -152 l 2
 650 -264 561 -350 450 -350 c 10
 150 -350 l 1049
EndSplineSet
EndChar

StartChar: h
Encoding: 104 104 73
Width: 800
Flags: MW
AnchorPoint: "Bottom" 400 -150 basechar 0
AnchorPoint: "Top" 150 1650 basechar 0
LayerCount: 2
Back
Fore
SplineSet
150 1350 m 1
 150 51 l 1041
150 50 m 129
 150 950 l 1
 450 950 l 2
 562 950 650 862 650 750 c 2
 650 51 l 1045
EndSplineSet
EndChar

StartChar: k
Encoding: 107 107 76
Width: 800
Flags: MW
AnchorPoint: "Bottom" 400 -150 basechar 0
AnchorPoint: "Top" 150 1650 basechar 0
LayerCount: 2
Back
Fore
SplineSet
650 50 m 29
 300 600 l 1053
650 950 m 29
 150 450 l 1053
150 50 m 29
 150 1350 l 1053
EndSplineSet
EndChar

StartChar: m
Encoding: 109 109 78
Width: 1100
Flags: MW
AnchorPoint: "Bottom" 550 -150 basechar 0
AnchorPoint: "Top" 550 1350 basechar 0
LayerCount: 2
Back
Fore
SplineSet
550 50 m 25
 550 950 l 1049
150 50 m 1
 150 950 l 17
 750 950 l 2
 862 950 950 861 950 750 c 2
 950 51 l 1025
EndSplineSet
EndChar

StartChar: n
Encoding: 110 110 79
Width: 800
Flags: MW
AnchorPoint: "Bottom" 401 -150 basechar 0
AnchorPoint: "Top" 400 1350 basechar 0
LayerCount: 2
Back
Fore
SplineSet
150 50 m 1
 150 950 l 17
 450 950 l 2
 562 950 650 862 650 750 c 2
 650 50 l 1025
EndSplineSet
EndChar

StartChar: o
Encoding: 111 111 80
Width: 800
Flags: MW
AnchorPoint: "TopRight" 850 950 basechar 0
AnchorPoint: "Ogonek" 300 0 basechar 0
AnchorPoint: "Top" 400 1350 basechar 0
LayerCount: 2
Back
Fore
SplineSet
150 700 m 2
 150 836 264 950 400 950 c 128
 536 950 650 836 650 700 c 2
 650 300 l 2
 650 164 536 50 400 50 c 128
 264 50 150 166 150 300 c 2
 150 700 l 2
EndSplineSet
EndChar

StartChar: r
Encoding: 114 114 83
Width: 700
Flags: MW
AnchorPoint: "Bottom" 150 -150 basechar 0
AnchorPoint: "Top" 350 1350 basechar 0
LayerCount: 2
Back
Fore
SplineSet
150 50 m 1
 150 950 l 1
 400 950 l 2
 485 950 550 883 550 800 c 1024
EndSplineSet
EndChar

StartChar: s
Encoding: 115 115 84
Width: 800
Flags: MW
AnchorPoint: "Top" 400 1350 basechar 0
LayerCount: 2
Back
Fore
SplineSet
150 125 m 0
 217 75 300 50 400 50 c 256
 521 50 650 112 650 225 c 256
 650 290 630 337 590 367 c 258
 208 650 l 2
 169 679 150 720 150 775 c 256
 150 900 261 950 400 950 c 256
 498 950 582 925 650 875 c 1280
EndSplineSet
EndChar

StartChar: t
Encoding: 116 116 85
Width: 600
Flags: MW
AnchorPoint: "Bottom" 250 -150 basechar 0
AnchorPoint: "TopRight" 450 1350 basechar 0
AnchorPoint: "Top" 250 1650 basechar 0
LayerCount: 2
Back
Fore
SplineSet
150 950 m 29
 450 950 l 1053
250 50 m 1
 250 1350 l 1049
EndSplineSet
EndChar

StartChar: v
Encoding: 118 118 87
Width: 800
Flags: MW
LayerCount: 2
Back
Fore
SplineSet
650 950 m 1
 401 50 l 1025
150 950 m 25
 399 50 l 1025
EndSplineSet
EndChar

StartChar: w
Encoding: 119 119 88
Width: 1200
Flags: MW
AnchorPoint: "Top" 600 1350 basechar 0
LayerCount: 2
Back
Fore
SplineSet
601 750 m 1
 849 50 l 1049
1050 950 m 25
 851 50 l 1025
150 950 m 25
 349 50 l 1025
351 50 m 25
 599 750 l 1049
EndSplineSet
EndChar

StartChar: x
Encoding: 120 120 89
Width: 800
Flags: MW
AnchorPoint: "Top" 400 1350 basechar 0
LayerCount: 2
Back
Fore
SplineSet
150 50 m 25
 650 950 l 1053
150 950 m 25
 650 50 l 1049
EndSplineSet
EndChar

StartChar: y
Encoding: 121 121 90
Width: 800
Flags: MW
AnchorPoint: "Bottom" 650 -150 basechar 0
AnchorPoint: "Top" 400 1350 basechar 0
LayerCount: 2
Back
Fore
SplineSet
150 950 m 1
 400 50 l 1049
650 950 m 1
 332 -200 l 2
 308 -288 261 -350 150 -350 c 1024
EndSplineSet
EndChar

StartChar: z
Encoding: 122 122 91
Width: 800
Flags: MW
AnchorPoint: "Top" 400 1350 basechar 0
LayerCount: 2
Back
Fore
SplineSet
150 950 m 29
 650 950 l 25
 150 50 l 25
 650 50 l 1049
EndSplineSet
EndChar

StartChar: braceleft
Encoding: 123 123 92
Width: 500
Flags: MW
LayerCount: 2
Back
Fore
SplineSet
150 700 m 0
 200 700 250 752 250 800 c 2
 250 1350 l 2
 250 1400 302 1450 350 1450 c 1024
350 -50 m 0
 300 -50 250 2 250 50 c 2
 250 600 l 2
 250 650 198 700 150 700 c 1024
EndSplineSet
EndChar

StartChar: bar
Encoding: 124 124 93
Width: 300
Flags: MW
LayerCount: 2
Back
Fore
SplineSet
150 1450 m 25
 150 -50 l 1049
EndSplineSet
EndChar

StartChar: asciitilde
Encoding: 126 126 95
Width: 900
Flags: MW
LayerCount: 2
Back
Fore
SplineSet
150 500 m 0
 194 533 244 550 300 550 c 0
 357 550 407 533 450 500 c 152
 493 467 543 450 600 450 c 0
 656 450 706 467 750 500 c 1024
EndSplineSet
EndChar

StartChar: cent
Encoding: 162 162 97
Width: 800
Flags: MW
LayerCount: 2
Back
Fore
SplineSet
450 1150 m 25
 450 -150 l 1053
650 950 m 1
 350 950 l 2
 238 950 150 861 150 750 c 2
 150 250 l 2
 150 136 239 50 350 50 c 2
 650 50 l 1025
EndSplineSet
EndChar

StartChar: sterling
Encoding: 163 163 98
Width: 900
Flags: MW
LayerCount: 2
Back
Fore
SplineSet
150 750 m 25
 450 750 l 1049
750 200 m 128
 750 118 682 50 600 50 c 2
 150 50 l 1025
157 50 m 0
 207 50 250 99 250 150 c 2
 250 1150 l 2
 250 1258 342 1350 450 1350 c 128
 558 1350 650 1258 650 1150 c 1024
EndSplineSet
EndChar

StartChar: currency
Encoding: 164 164 99
Width: 1400
Flags: MW
LayerCount: 2
Back
Fore
SplineSet
1250 151 m 25
 1100 301 l 1053
150 150 m 25
 300 299 l 1049
1250 1249 m 25
 1100 1099 l 1049
150 1249 m 25
 300 1100 l 1049
150 700 m 128
 150 922 276 1089 424 1176 c 0
 509 1225 601 1250 700 1250 c 128
 921 1250 1089 1124 1176 976 c 128
 1225 892 1250 800 1250 700 c 128
 1250 478 1124 310 976 223 c 0
 891 174 799 149 700 149 c 128
 479 149 311 276 224 424 c 128
 175 508 150 600 150 700 c 128
EndSplineSet
EndChar

StartChar: yen
Encoding: 165 165 100
Width: 1000
UnlinkRmOvrlpSave: 1
Flags: MW
LayerCount: 2
Back
Fore
SplineSet
200 550 m 25
 800 550 l 1049
200 750 m 25
 800 750 l 1049
EndSplineSet
Refer: 60 89 N 1 0 0 1 0 0 2
EndChar

StartChar: brokenbar
Encoding: 166 166 101
Width: 300
Flags: MW
LayerCount: 2
Back
Fore
SplineSet
150 550 m 25
 150 -50 l 1049
150 1450 m 25
 150 850 l 1049
EndSplineSet
EndChar

StartChar: section
Encoding: 167 167 102
Width: 800
Flags: MW
LayerCount: 2
Back
Fore
SplineSet
520 325 m 0
 586 373 650 475 650 601 c 0
 650 778 562 852 451 943 c 0
 349 1028 285 1082 258 1107 c 24
 219 1142 200 1190 200 1249 c 0
 200 1359 289 1450 400 1450 c 0
 489 1450 556 1416 600 1349 c 1024
280 1075 m 0
 214 1027 150 925 150 799 c 0
 150 622 238 548 349 457 c 0
 451 372 515 318 542 293 c 24
 581 258 600 210 600 151 c 0
 600 41 511 -50 400 -50 c 0
 311 -50 244 -16 200 51 c 1024
EndSplineSet
EndChar

StartChar: ordfeminine
Encoding: 170 170 104
Width: 900
Flags: MW
LayerCount: 2
Back
Fore
SplineSet
550 900 m 128
 550 818 482 750 400 750 c 2
 300 750 l 2
 217 750 150 817 150 900 c 2
 150 1200 l 2
 150 1282 218 1350 300 1350 c 2
 550 1350 l 1
 550 1000 l 1025
650 750 m 0
 594 750 550 795 550 850 c 2
 550 1000 l 1025
EndSplineSet
EndChar

StartChar: logicalnot
Encoding: 172 172 106
Width: 900
Flags: MW
LayerCount: 2
Back
Fore
SplineSet
150 600 m 1
 750 600 l 1
 750 400 l 1029
EndSplineSet
EndChar

StartChar: degree
Encoding: 176 176 109
Width: 600
Flags: MW
LayerCount: 2
Back
Fore
SplineSet
300 1050 m 128
 218 1050 150 1118 150 1200 c 132
 150 1282 218 1350 300 1350 c 128
 382 1350 450 1282 450 1200 c 128
 450 1118 382 1050 300 1050 c 128
EndSplineSet
EndChar

StartChar: paragraph
Encoding: 182 182 112
Width: 1100
Flags: MW
LayerCount: 2
Back
Fore
SplineSet
800 50 m 25
 800 1350 l 1049
500 50 m 25
 500 1350 l 1049
950 1350 m 25
 450 1350 l 18
 286 1350 150 1214 150 1050 c 128
 150 886 287 750 450 750 c 10
 500 750 l 1049
EndSplineSet
EndChar

StartChar: ordmasculine
Encoding: 186 186 115
Width: 600
Flags: MW
LayerCount: 2
Back
Fore
SplineSet
300 1350 m 128
 218 1350 150 1282 150 1200 c 10
 150 900 l 22
 150 818 218 750 300 750 c 128
 382 750 450 818 450 900 c 2
 450 1200 l 2
 450 1282 382 1350 300 1350 c 128
EndSplineSet
EndChar

StartChar: multiply
Encoding: 215 215 117
Width: 800
Flags: MW
LayerCount: 2
Back
Fore
SplineSet
150 250 m 25
 650 750 l 1053
650 250 m 25
 150 750 l 1049
EndSplineSet
EndChar

StartChar: uni0394
Encoding: 916 916 121
Width: 1000
Flags: MW
LayerCount: 2
Back
Fore
SplineSet
850 52 m 29
 501 1350 l 1029
150 50 m 5
 850 50 l 1029
499 1350 m 29
 150 51 l 1029
EndSplineSet
EndChar

StartChar: Theta
Encoding: 920 920 125
Width: 900
Flags: MW
LayerCount: 2
Back
Fore
SplineSet
350 750 m 25
 550 750 l 1049
EndSplineSet
Refer: 132 927 N 1 0 0 1 0 0 2
EndChar

StartChar: Lambda
Encoding: 923 923 128
Width: 1000
Flags: MW
LayerCount: 2
Back
Fore
SplineSet
850 50 m 29
 501 1350 l 1025
499 1350 m 25
 150 50 l 1025
EndSplineSet
EndChar

StartChar: Xi
Encoding: 926 926 131
Width: 900
Flags: MW
LayerCount: 2
Back
Fore
SplineSet
150 50 m 25
 750 50 l 1053
300 750 m 25
 600 750 l 1049
150 1350 m 25
 750 1350 l 1049
EndSplineSet
EndChar

StartChar: Sigma
Encoding: 931 931 135
Width: 900
Flags: MW
LayerCount: 2
Back
Fore
SplineSet
750 1350 m 25
 150 1350 l 25
 450 700 l 25
 150 50 l 25
 750 50 l 1049
EndSplineSet
EndChar

StartChar: Phi
Encoding: 934 934 138
Width: 1000
Flags: MW
LayerCount: 2
Back
Fore
SplineSet
500 1352 m 29
 500 50 l 1053
150 800 m 22
 150 992 314 1150 500 1150 c 4
 692 1150 850 992 850 800 c 6
 850 600 l 6
 850 407 691 250 500 250 c 132
 309 250 150 407 150 600 c 14
 150 800 l 22
EndSplineSet
EndChar

StartChar: Psi
Encoding: 936 936 140
Width: 1000
Flags: MW
LayerCount: 2
Back
Fore
SplineSet
500 1350 m 25
 500 50 l 1049
850 1350 m 1
 850 800 l 2
 850 609 691 450 500 450 c 256
 309 450 150 608 150 800 c 6
 150 1350 l 1041
EndSplineSet
EndChar

StartChar: uni03A9
Encoding: 937 937 141
Width: 1000
Flags: MW
AnchorPoint: "Tonos" 100 1350 basechar 0
LayerCount: 2
Back
Fore
SplineSet
750 50 m 25
 600 50 l 25
 600 300 l 17
 737 300 850 414 850 550 c 2
 850 1000 l 2
 850 1193 693 1350 500 1350 c 0
 307 1350 150 1193 150 1000 c 2
 150 550 l 2
 150 413 263 300 400 300 c 9
 400 50 l 25
 250 50 l 1049
EndSplineSet
EndChar

StartChar: alpha
Encoding: 945 945 142
Width: 950
Flags: MW
LayerCount: 2
Back
Fore
SplineSet
750 950 m 1
 542 191 l 2
 521 113 436 50 350 50 c 0
 239 50 150 140 150 250 c 2
 150 750 l 2
 150 860 239 950 350 950 c 0
 436 950 521 887 542 809 c 2
 750 50 l 9
 800 50 l 1053
EndSplineSet
EndChar

StartChar: beta
Encoding: 946 946 143
Width: 800
Flags: MW
LayerCount: 2
Back
Fore
SplineSet
150 -350 m 5
 150 1100 l 6
 150 1231 247 1349 375 1350 c 4
 503 1349 600 1231 600 1100 c 132
 600 969 503 850 375 850 c 6
 400 850 l 6
 534 850 650 736 650 600 c 6
 650 300 l 6
 650 165 538 50 400 50 c 14
 350 50 l 1053
EndSplineSet
EndChar

StartChar: gamma
Encoding: 947 947 144
Width: 800
Flags: MW
LayerCount: 2
Back
Fore
SplineSet
150 950 m 0
 275 950 375 800 450 500 c 0
 483 367 500 217 500 50 c 0
 500 -217 483 -350 450 -350 c 128
 417 -350 400 -217 400 50 c 0
 400 448 482 688 650 950 c 1024
EndSplineSet
EndChar

StartChar: delta
Encoding: 948 948 145
Width: 800
Flags: MW
LayerCount: 2
Back
Fore
SplineSet
550 1276 m 0
 497 1325 441 1350 382 1350 c 4
 294 1350 250 1317 250 1250 c 0
 250 1213 262 1186 284 1164 c 2
 576 876 l 1025
150 700 m 2
 150 836 264 950 400 950 c 128
 536 950 650 836 650 700 c 2
 650 300 l 2
 650 164 536 50 400 50 c 128
 264 50 150 166 150 300 c 2
 150 700 l 2
EndSplineSet
EndChar

StartChar: epsilon
Encoding: 949 949 146
Width: 800
Flags: MW
LayerCount: 2
Back
Fore
SplineSet
350 500 m 4
 246 500 150 618 150 728 c 4
 150 873 240 950 400 950 c 7
 504 950 587 933 650 900 c 1052
450 500 m 1
 350 500 l 2
 246 500 150 382 150 272 c 0
 150 127 240 50 400 50 c 3
 504 50 587 67 650 100 c 1048
EndSplineSet
EndChar

StartChar: zeta
Encoding: 950 950 147
Width: 800
Flags: MW
LayerCount: 2
Back
Fore
SplineSet
150 1350 m 128
 150 1239 238 1150 350 1150 c 2
 600 1150 l 1053
250 -350 m 1
 450 -350 l 2
 557 -350 650 -257 650 -150 c 0
 650 -43 560 50 450 50 c 2
 400 50 l 2
 263 50 150 163 150 300 c 0
 150 641 300 924 600 1149 c 1024
EndSplineSet
EndChar

StartChar: eta
Encoding: 951 951 148
Width: 900
Flags: MW
LayerCount: 2
Back
Fore
SplineSet
250 50 m 5
 250 850 l 6
 250 903 203 950 150 950 c 1156
250 700 m 4
 250 837 363 950 500 950 c 132
 637 950 750 838 750 700 c 6
 750 -350 l 1029
EndSplineSet
EndChar

StartChar: theta
Encoding: 952 952 149
Width: 1100
Flags: MW
LayerCount: 2
Back
Fore
SplineSet
150 450 m 128
 150 503 197 550 250 550 c 0
 284 550 310 536 328 508 c 258
 581 114 l 6
 608 71 648 50 700 50 c 0
 780 50 850 113 850 200 c 2
 850 1100 l 2
 850 1238 738 1350 600 1350 c 128
 462 1350 350 1238 350 1100 c 128
 350 962 462 850 600 850 c 2
 950 850 l 1025
EndSplineSet
EndChar

StartChar: iota
Encoding: 953 953 150
Width: 550
Flags: MW
LayerCount: 2
Back
Fore
SplineSet
400 125 m 0
 385 88 327 50 277 50 c 0
 208 50 150 107 150 175 c 10
 150 950 l 1049
EndSplineSet
EndChar

StartChar: kappa
Encoding: 954 954 151
Width: 950
Flags: MW
LayerCount: 2
Back
Fore
SplineSet
800 50 m 25
 750 50 l 2
 716 50 688 69 665 108 c 2
 409 539 l 1025
150 950 m 128
 203 950 250 902 250 850 c 2
 250 50 l 1025
750 950 m 25
 250 350 l 1025
EndSplineSet
EndChar

StartChar: lambda
Encoding: 955 955 152
Width: 850
Flags: MW
LayerCount: 2
Back
Fore
SplineSet
700 50 m 24
 669 46 646 62 636 100 c 26
 317 1250 l 26
 298 1317 259 1350 200 1350 c 1048
400 950 m 9
 150 50 l 1045
EndSplineSet
EndChar

StartChar: uni03BC
Encoding: 956 956 153
Width: 900
Flags: MW
LayerCount: 2
Back
Fore
SplineSet
150 -350 m 1
 150 300 l 1049
650 950 m 1
 650 150 l 2
 650 97 697 50 750 50 c 1152
650 300 m 0
 650 169.075481476 539 50 401 50 c 27
 400 50 399 50 399 50 c 131
 262 50 150 162 150 300 c 2
 150 950 l 1033
EndSplineSet
EndChar

StartChar: nu
Encoding: 957 957 154
Width: 800
Flags: MW
LayerCount: 2
Back
Fore
SplineSet
650 950 m 4
 650 595 550 295 351 50 c 1052
349 50 m 4
 283 351 250 617 250 850 c 4
 250 902 204 950 150 950 c 1028
EndSplineSet
EndChar

StartChar: xi
Encoding: 958 958 155
Width: 900
Flags: MW
LayerCount: 2
Back
Fore
SplineSet
500 1250 m 132
 363 1250 250 1138 250 1001 c 4
 250 866 362 750 500 750 c 6
 600 750 l 1029
150 1350 m 4
 150 1298 196 1250 250 1250 c 6
 600 1250 l 1029
350 -350 m 5
 550 -350 l 6
 657 -350 750 -257 750 -150 c 4
 750 -43 660 50 550 50 c 6
 500 50 l 6
 306 50 150 207 150 400 c 132
 150 593 307 750 500 750 c 1028
EndSplineSet
EndChar

StartChar: pi
Encoding: 960 960 157
Width: 1000
Flags: MW
LayerCount: 2
Back
Fore
SplineSet
200 50 m 0
 256 50 300 94 300 150 c 10
 300 950 l 1049
850 1000 m 0
 807 967 757 950 700 950 c 2
 150 950 l 1053
800 50 m 0
 744 50 700 94 700 150 c 10
 700 950 l 1049
EndSplineSet
EndChar

StartChar: rho
Encoding: 961 961 158
Width: 800
UnlinkRmOvrlpSave: 1
Flags: MW
LayerCount: 2
Back
Fore
SplineSet
250 101 m 4
 363 -17 397 -167 350 -350 c 1052
EndSplineSet
Refer: 80 111 S 1 0 0 1 0 0 2
EndChar

StartChar: sigma1
Encoding: 962 962 159
Width: 800
Flags: MW
LayerCount: 2
Back
Fore
SplineSet
600 900 m 0
 509 933 425 950 350 950 c 256
 241 950 150 859 150 750 c 2
 150 250 l 2
 150 140 239 50 350 50 c 2
 450 50 l 2
 557 50 650 -41 650 -147 c 0
 650 -149 650 -149 650 -150 c 0
 650 -255 557 -350 450 -350 c 2
 250 -350 l 1025
EndSplineSet
EndChar

StartChar: sigma
Encoding: 963 963 160
Width: 800
Flags: MW
LayerCount: 2
Back
Fore
SplineSet
500 930 m 4
 577 905 661 928 750 1000 c 1024
EndSplineSet
Refer: 80 111 N 1 0 0 1 0 0 2
EndChar

StartChar: tau
Encoding: 964 964 161
Width: 850
Flags: MW
LayerCount: 2
Back
Fore
SplineSet
700 1000 m 0
 657 967 607 950 550 950 c 2
 150 950 l 1025
400 950 m 25
 400 150 l 6
 400 95 445 50 500 50 c 10
 550 50 l 1049
EndSplineSet
EndChar

StartChar: upsilon
Encoding: 965 965 162
Width: 800
Flags: MW
LayerCount: 2
Back
Fore
SplineSet
150 950 m 256
 175 950 200 925 200 900 c 258
 200 200 l 2
 200 120 271 50 350 50 c 256
 389 50 422 66 456 87 c 256
 583 166 650 350 650 650 c 0
 650 834 648 836 600 950 c 1048
EndSplineSet
EndChar

StartChar: phi
Encoding: 966 966 163
Width: 1000
Flags: MW
LayerCount: 2
Back
Fore
SplineSet
250 950 m 28
 183 779 150 596 150 400 c 260
 150 202 303 50 500 50 c 260
 698 50 850 202 850 400 c 260
 850 767 774 950 624 950 c 4
 554 950 500 895 500 825 c 270
 500 -350 l 1053
EndSplineSet
EndChar

StartChar: chi
Encoding: 967 967 164
Width: 900
Flags: MW
LayerCount: 2
Back
Fore
SplineSet
150 950 m 0
 196 950 229 921 250 863 c 2
 650 -263 l 2
 671 -321 704 -350 750 -350 c 1024
700 950 m 25
 200 -350 l 1049
EndSplineSet
EndChar

StartChar: psi
Encoding: 968 968 165
Width: 1000
Flags: MW
LayerCount: 2
Back
Fore
SplineSet
500 1150 m 25
 500 -350 l 1049
850 950 m 1
 850 400 l 2
 850 209 691 50 500 50 c 256
 309 50 150 208 150 400 c 2
 150 950 l 1041
EndSplineSet
EndChar

StartChar: omega
Encoding: 969 969 166
Width: 1100
Flags: MW
LayerCount: 2
Back
Fore
SplineSet
250 950 m 0
 183 806 150 573 150 250 c 256
 150 140 241 50 350 50 c 256
 459 50 550 141 550 250 c 1288
850 950 m 0
 917 806 950 573 950 250 c 256
 950 140 859 50 750 50 c 256
 641 50 550 141 550 250 c 266
 550 450 l 1049
EndSplineSet
EndChar

StartChar: uni0401
Encoding: 1025 1025 167
Width: 800
Flags: MW
LayerCount: 2
Back
Fore
SplineSet
400 1550 m 1049,0,-1
100 1550 m 1049,0,-1
EndSplineSet
Refer: 173 1045 N 1 0 0 1 0 0 3
EndChar

StartChar: uni0411
Encoding: 1041 1041 169
Width: 900
Flags: MW
LayerCount: 2
Back
Fore
SplineSet
150 750 m 1
 400 750 l 2
 601 750 750 597 750 400 c 0
 750 201 597 50 400 50 c 10
 150 50 l 1
 150 1350 l 25
 650 1350 l 1049
EndSplineSet
EndChar

StartChar: uni0413
Encoding: 1043 1043 171
Width: 800
Flags: MW
AnchorPoint: "Top" 450 1650 basechar 0
LayerCount: 2
Back
Fore
SplineSet
650 1350 m 25
 150 1350 l 25
 150 50 l 1049
EndSplineSet
EndChar

StartChar: uni0414
Encoding: 1044 1044 172
Width: 1000
Flags: MW
LayerCount: 2
Back
Fore
SplineSet
750 50 m 29
 750 1350 l 1
 450 1350 l 25
 250 50 l 1049
850 -50 m 25
 850 50 l 25
 150 50 l 25
 150 -50 l 1049
EndSplineSet
EndChar

StartChar: uni0416
Encoding: 1046 1046 174
Width: 1100
Flags: MW
LayerCount: 2
Back
Fore
SplineSet
950 1350 m 29
 600 750 l 29
 950 50 l 1053
150 1350 m 29
 500 750 l 29
 150 50 l 1053
550 50 m 29
 550 1350 l 1053
EndSplineSet
EndChar

StartChar: uni0417
Encoding: 1047 1047 175
Width: 900
Flags: MW
LayerCount: 2
Back
Fore
SplineSet
350 750 m 25
 450 750 l 18
 611 750 725 889 725 1050 c 256
 725 1214 592 1350 426 1350 c 0
 327 1350 251 1325 200 1275 c 1032
450 749 m 0
 649 749 750 597 750 400 c 256
 750 200 626 50 425 50 c 256
 305 50 213 83 150 150 c 1048
EndSplineSet
EndChar

StartChar: uni041B
Encoding: 1051 1051 179
Width: 900
Flags: MW
LayerCount: 2
Back
Fore
SplineSet
150 50 m 29
 450 1350 l 25
 750 1350 l 25
 750 50 l 1049
EndSplineSet
EndChar

StartChar: uni041F
Encoding: 1055 1055 183
Width: 900
Flags: MW
LayerCount: 2
Back
Fore
SplineSet
150 50 m 25
 150 1350 l 25
 750 1350 l 25
 750 50 l 1053
EndSplineSet
EndChar

StartChar: uni0423
Encoding: 1059 1059 187
Width: 900
Flags: MW
AnchorPoint: "Top" 450 1650 basechar 0
LayerCount: 2
Back
Fore
SplineSet
250 50 m 9
 500 50 l 18
 636 50 750 163 750 300 c 10
 750 1350 l 1041
750 650 m 9
 500 650 l 2
 329 650 150 829 150 1000 c 2
 150 1350 l 1041
EndSplineSet
EndChar

StartChar: uni0424
Encoding: 1060 1060 188
Width: 1300
Flags: MW
LayerCount: 2
Back
Fore
SplineSet
650 50 m 25
 650 1350 l 1049
1150 750 m 256
 1150 531 969 350 750 350 c 10
 550 350 l 18
 331 350 150 531 150 750 c 256
 150 969 331 1150 550 1150 c 2
 750 1150 l 2
 969 1150 1150 969 1150 750 c 256
EndSplineSet
EndChar

StartChar: uni0426
Encoding: 1062 1062 190
Width: 1000
Flags: MW
LayerCount: 2
Back
Fore
SplineSet
750 1350 m 29
 750 50 l 1053
150 1350 m 29
 150 50 l 29
 850 50 l 29
 850 -150 l 1053
EndSplineSet
EndChar

StartChar: uni0427
Encoding: 1063 1063 191
Width: 900
Flags: MW
AnchorPoint: "Top" 450 1650 basechar 0
LayerCount: 2
Back
Fore
SplineSet
750 1350 m 9
 750 50 l 1025
750 650 m 9
 500 650 l 2
 329 650 150 829 150 1000 c 2
 150 1350 l 1041
EndSplineSet
EndChar

StartChar: uni0428
Encoding: 1064 1064 192
Width: 1100
Flags: MW
LayerCount: 2
Back
Fore
SplineSet
550 1350 m 25
 550 50 l 1049
150 1350 m 25
 150 50 l 25
 950 50 l 29
 950 1350 l 1049
EndSplineSet
EndChar

StartChar: uni0429
Encoding: 1065 1065 193
Width: 1200
Flags: MW
LayerCount: 2
Back
Fore
SplineSet
550 1350 m 25
 550 50 l 1049
950 1350 m 25
 950 50 l 1049
150 1350 m 25
 150 50 l 25
 1050 50 l 25
 1050 -150 l 1049
EndSplineSet
EndChar

StartChar: uni042A
Encoding: 1066 1066 194
Width: 1100
Flags: MW
LayerCount: 2
Back
Fore
SplineSet
350 750 m 1
 600 750 l 2
 801 750 950 597 950 400 c 0
 950 201 797 50 600 50 c 10
 350 50 l 1
 350 1350 l 29
 150 1350 l 1025
EndSplineSet
EndChar

StartChar: uni042B
Encoding: 1067 1067 195
Width: 1000
Flags: MW
LayerCount: 2
Back
Fore
SplineSet
850 1350 m 25
 850 50 l 1049
150 750 m 1
 300 750 l 2
 500 750 650 598 650 400 c 0
 650 202 498 50 300 50 c 10
 150 50 l 1
 150 1350 l 1049
EndSplineSet
EndChar

StartChar: uni042D
Encoding: 1069 1069 197
Width: 900
Flags: MW
AnchorPoint: "Top" 400 1650 basechar 0
LayerCount: 2
Back
Fore
SplineSet
350 750 m 25
 750 750 l 1049
150 1350 m 25
 450 1350 l 2
 614 1350 750 1214 750 1050 c 2
 750 351 l 2
 750 187 614 50 450 50 c 2
 150 50 l 1049
EndSplineSet
EndChar

StartChar: uni042E
Encoding: 1070 1070 198
Width: 1000
Flags: MW
LayerCount: 2
Back
Fore
SplineSet
350 750 m 25
 150 750 l 1049
150 1350 m 17
 150 50 l 1033
600 1350 m 256
 737 1350 850 1237 850 1100 c 266
 850 300 l 274
 850 163 737 50 600 50 c 256
 463 50 350 163 350 300 c 2
 350 1100 l 2
 350 1237 463 1350 600 1350 c 256
EndSplineSet
EndChar

StartChar: uni0431
Encoding: 1073 1073 201
Width: 800
Flags: MW
LayerCount: 2
Back
Fore
SplineSet
576 876 m 5
 150 1350 l 5
 650 1350 l 1053
150 700 m 6
 150 836 264 950 400 950 c 132
 536 950 650 836 650 700 c 6
 650 300 l 6
 650 164 536 50 400 50 c 132
 264 50 150 166 150 300 c 6
 150 700 l 6
EndSplineSet
EndChar

StartChar: uni0432
Encoding: 1074 1074 202
Width: 800
Flags: MW
LayerCount: 2
Back
Fore
SplineSet
150 700 m 25
 150 1200 l 274
 150 1282 218 1350 300 1350 c 256
 382 1350 450 1282 450 1200 c 260
 450 1164 435 1129 406 1094 c 10
 224 876 l 1053
150 700 m 258
 150 836 264 950 400 950 c 256
 536 950 650 836 650 700 c 2
 650 300 l 2
 650 164 536 50 400 50 c 256
 265 50 150 166 150 300 c 258
 150 700 l 258
EndSplineSet
EndChar

StartChar: uni0434
Encoding: 1076 1076 204
Width: 800
Flags: MW
LayerCount: 2
Back
Fore
SplineSet
650 950 m 1
 351 950 l 2
 239 950 150 862 150 750 c 258
 150 300 l 258
 150 162 262 50 400 50 c 256
 538 50 650 162 650 300 c 258
 650 1150 l 258
 650 1263 563 1350 450 1350 c 258
 250 1350 l 1025
EndSplineSet
EndChar

StartChar: uni0436
Encoding: 1078 1078 206
Width: 1000
Flags: MW
AnchorPoint: "Top" 500 1350 basechar 0
LayerCount: 2
Back
Fore
SplineSet
850 950 m 1
 550 500 l 1
 850 50 l 1025
150 950 m 1
 450 499 l 1
 150 50 l 1029
500 50 m 5
 500 950 l 1025
EndSplineSet
EndChar

StartChar: uni0437
Encoding: 1079 1079 207
Width: 750
Flags: MW
AnchorPoint: "Top" 375 1350 basechar 0
LayerCount: 2
Back
Fore
SplineSet
400 500 m 0
 504 500 600 618 600 728 c 0
 600 873 510 950 350 950 c 3
 302 950 252 925 200 875 c 1048
350 500 m 1
 400 500 l 2
 504 500 600 382 600 272 c 0
 600 127 510 50 350 50 c 3
 269 50 202 75 150 125 c 1048
EndSplineSet
EndChar

StartChar: uni043A
Encoding: 1082 1082 210
Width: 800
Flags: MW
AnchorPoint: "Top" 400 1350 basechar 0
LayerCount: 2
Back
Fore
SplineSet
650 50 m 25
 307 538 l 1053
650 950 m 25
 150 350 l 1049
150 50 m 25
 150 950 l 1049
EndSplineSet
EndChar

StartChar: uni043B
Encoding: 1083 1083 211
Width: 800
Flags: MW
LayerCount: 2
Back
Fore
SplineSet
650 50 m 25
 650 950 l 25
 400 950 l 25
 150 50 l 25
 151 50 l 1049
EndSplineSet
EndChar

StartChar: uni043C
Encoding: 1084 1084 212
Width: 900
Flags: MW
LayerCount: 2
Back
Fore
SplineSet
748 950 m 25
 452 500 l 1049
750 50 m 25
 750 950 l 1049
150 50 m 25
 150 950 l 1049
151 950 m 25
 448 500 l 1049
EndSplineSet
EndChar

StartChar: uni043D
Encoding: 1085 1085 213
Width: 800
Flags: MW
LayerCount: 2
Back
Fore
SplineSet
150 500 m 25
 650 500 l 1053
650 50 m 25
 650 950 l 1049
150 950 m 25
 150 50 l 1049
EndSplineSet
EndChar

StartChar: uni0443
Encoding: 1091 1091 219
Width: 800
Flags: MW
AnchorPoint: "Top" 400 1350 basechar 0
LayerCount: 2
Back
Fore
SplineSet
650 50 m 25
 650 -200 l 274
 650 -282 582 -350 500 -350 c 266
 200 -350 l 1053
650 950 m 1
 650 50 l 1
 350 50 l 2
 238 50 150 138 150 250 c 2
 150 950 l 1025
EndSplineSet
EndChar

StartChar: uni0444
Encoding: 1092 1092 220
Width: 1100
Flags: MW
LayerCount: 2
Back
Fore
SplineSet
550 1200 m 25
 550 -350 l 1053
600 950 m 258
 798 950 950 797 950 600 c 266
 950 400 l 274
 950 202 797 50 600 50 c 258
 500 50 l 258
 302 50 150 203 150 400 c 258
 150 600 l 258
 150 798 303 950 500 950 c 258
 600 950 l 258
EndSplineSet
EndChar

StartChar: uni0446
Encoding: 1094 1094 222
Width: 900
Flags: MW
LayerCount: 2
Back
Fore
SplineSet
750 -150 m 29
 750 50 l 29
 650 50 l 1053
EndSplineSet
Refer: 208 1080 N 1 0 0 1 0 0 2
EndChar

StartChar: uni0447
Encoding: 1095 1095 223
Width: 800
Flags: MW
AnchorPoint: "Top" 400 1350 basechar 0
LayerCount: 2
Back
Fore
SplineSet
650 50 m 25
 650 500 l 1049
650 950 m 1
 650 500 l 17
 350 500 l 2
 238 500 150 588 150 700 c 2
 150 950 l 1025
EndSplineSet
EndChar

StartChar: uni0449
Encoding: 1097 1097 225
Width: 1200
UnlinkRmOvrlpSave: 1
Flags: MW
LayerCount: 2
Back
Fore
SplineSet
1050 -150 m 25
 1050 50 l 25
 950 50 l 1049
EndSplineSet
Refer: 224 1096 N 1 0 0 1 0 0 2
EndChar

StartChar: uni044A
Encoding: 1098 1098 226
Width: 900
UnlinkRmOvrlpSave: 1
Flags: MW
LayerCount: 2
Back
Fore
SplineSet
150 950 m 25
 250 950 l 1049
EndSplineSet
Refer: 228 1100 N 1 0 0 1 100 0 2
EndChar

StartChar: uni044B
Encoding: 1099 1099 227
Width: 900
Flags: MW
AnchorPoint: "Top" 450 1350 basechar 0
LayerCount: 2
Back
Fore
SplineSet
750 950 m 25
 750 50 l 1049
150 500 m 1
 350 500 l 2
 467 500 550 416 550 300 c 258
 550 250 l 258
 550 138 462 50 350 50 c 258
 150 50 l 9
 150 950 l 1049
EndSplineSet
EndChar

StartChar: uni044C
Encoding: 1100 1100 228
Width: 800
Flags: MW
LayerCount: 2
Back
Fore
SplineSet
150 500 m 5
 450 500 l 2
 567 500 650 416 650 300 c 258
 650 250 l 258
 650 138 562 50 450 50 c 258
 150 50 l 9
 150 950 l 1041
EndSplineSet
EndChar

StartChar: uni044D
Encoding: 1101 1101 229
Width: 800
Flags: MW
AnchorPoint: "Top" 375 1350 basechar 0
LayerCount: 2
Back
Fore
SplineSet
400 500 m 25
 649 500 l 1049
150 950 m 1
 450 950 l 2
 562 950 650 862 650 750 c 2
 650 250 l 2
 650 137 562 50 450 50 c 2
 150 50 l 1025
EndSplineSet
EndChar

StartChar: uni044E
Encoding: 1102 1102 230
Width: 900
Flags: MW
LayerCount: 2
Back
Fore
SplineSet
350 500 m 25
 150 500 l 1049
150 50 m 25
 150 950 l 1049
550 950 m 256
 439 950 350 859 350 750 c 2
 350 250 l 18
 350 140 439 50 550 50 c 256
 661 50 750 139 750 250 c 2
 750 750 l 2
 750 861 661 950 550 950 c 256
EndSplineSet
EndChar

StartChar: uni044F
Encoding: 1103 1103 231
Width: 800
Flags: MW
LayerCount: 2
Back
Fore
SplineSet
150 50 m 25
 400 500 l 1053
650 50 m 1
 650 950 l 1
 375 950 l 2
 252 950 150 848 150 725 c 256
 150 602 252 500 375 500 c 2
 650 500 l 1025
EndSplineSet
EndChar

StartChar: uni2010
Encoding: 8208 8208 233
Width: 401
Flags: MW
LayerCount: 2
Back
Fore
SplineSet
150 500 m 25
 350 500 l 1049
EndSplineSet
EndChar

StartChar: emdash
Encoding: 8212 8212 236
Width: 1100
Flags: MW
LayerCount: 2
Back
Fore
SplineSet
150 500 m 25
 950 500 l 1053
EndSplineSet
EndChar

StartChar: bullet
Encoding: 8226 8226 246
Width: 400
Flags: MW
LayerCount: 2
Back
Fore
SplineSet
200 600 m 128
 254 600 300 554 300 500 c 128
 300 446 254 400 200 400 c 128
 146 400 100 446 100 500 c 128
 100 554 146 600 200 600 c 128
EndSplineSet
EndChar

StartChar: minute
Encoding: 8242 8242 252
Width: 250
Flags: MW
LayerCount: 2
Back
Fore
SplineSet
150 1350 m 25
 100 1050 l 1053
EndSplineSet
EndChar

StartChar: guilsinglleft
Encoding: 8249 8249 255
Width: 550
Flags: MW
LayerCount: 2
Back
Fore
SplineSet
400 850 m 25
 150 500 l 25
 400 150 l 1053
EndSplineSet
EndChar

StartChar: Euro
Encoding: 8364 8364 263
Width: 1400
Flags: MW
LayerCount: 2
Back
Fore
SplineSet
150 600 m 25
 950 600 l 1049
150 800 m 25
 1050 800 l 1049
1250 150 m 256
 1136 83 1019 50 900 50 c 256
 639 50 439 200 337 375 c 128
 279 474 250 583 250 700 c 256
 250 961 398 1163 574 1264 c 128
 674 1321 783 1350 900 1350 c 256
 1017 1350 1133 1317 1250 1250 c 1024
EndSplineSet
EndChar

StartChar: trademark
Encoding: 8482 8482 267
Width: 1400
Flags: MW
LayerCount: 2
Back
Fore
SplineSet
1248 1350 m 25
 1002 1000 l 1049
1250 750 m 25
 1250 1350 l 1049
750 750 m 25
 750 1350 l 1049
751 1350 m 25
 998 1000 l 1049
350 750 m 25
 350 1350 l 1049
150 1350 m 25
 550 1350 l 1049
EndSplineSet
EndChar

StartChar: uni2215
Encoding: 8725 8725 290
Width: 1100
Flags: MW
LayerCount: 2
Back
Fore
SplineSet
150 -150 m 25
 950 1650 l 1053
EndSplineSet
EndChar

StartChar: radical
Encoding: 8730 8730 295
Width: 900
VWidth: 1800
Flags: MW
TeX: 100 1800
LayerCount: 2
Back
Fore
SplineSet
150 950 m 25
 349 -150 l 1053
1000 1650 m 25
 750 1650 l 25
 351 -150 l 1049
EndSplineSet
EndChar

StartChar: proportional
Encoding: 8733 8733 296
Width: 1050
Flags: MW
LayerCount: 2
Back
Fore
SplineSet
900 650 m 256
 871 650 839 640 804 619 c 258
 396 380 l 258
 362 360 330 350 300 350 c 256
 217 350 150 417 150 500 c 256
 150 583 217 650 300 650 c 256
 330 650 359 642 388 625 c 266
 803 383 l 274
 840 362 872 351 900 350 c 1280
EndSplineSet
EndChar

StartChar: infinity
Encoding: 8734 8734 297
Width: 1200
Flags: MW
LayerCount: 2
Back
Fore
SplineSet
1050 500 m 256
 1050 583 983 650 900 650 c 256
 871 650 839 640 804 619 c 258
 396 380 l 258
 362 360 330 350 300 350 c 256
 217 350 150 417 150 500 c 256
 150 583 217 650 300 650 c 256
 330 650 359 642 388 625 c 266
 803 383 l 274
 840 362 872 351 900 350 c 256
 983 350 1050 417 1050 500 c 256
EndSplineSet
EndChar

StartChar: orthogonal
Encoding: 8735 8735 298
Width: 950
Flags: MW
LayerCount: 2
Back
Fore
SplineSet
150 1000 m 25
 150 350 l 25
 800 350 l 1049
EndSplineSet
EndChar

StartChar: angle
Encoding: 8736 8736 299
Width: 950
Flags: MW
LayerCount: 2
Back
Fore
SplineSet
150 350 m 25
 800 350 l 1049
800 750 m 25
 150 351 l 1053
EndSplineSet
EndChar

StartChar: uni2221
Encoding: 8737 8737 300
Width: 950
Flags: MW
LayerCount: 2
Back
Fore
SplineSet
450 750 m 4
 558 670 650 524 650 350 c 4
 650 297 643 247 628 200 c 1028
150 350 m 29
 800 350 l 1029
800 750 m 29
 150 351 l 1029
EndSplineSet
EndChar

StartChar: uni2222
Encoding: 8738 8738 301
Width: 950
Flags: MW
LayerCount: 2
Back
Fore
SplineSet
550 900 m 0
 633 812 700 663 700 500 c 128
 700 337 633 188 550 100 c 1280
150 499 m 1
 800 200 l 1025
800 800 m 25
 150 501 l 1025
EndSplineSet
EndChar

StartChar: integral
Encoding: 8747 8747 304
Width: 1100
Flags: MW
LayerCount: 2
Back
Fore
SplineSet
150 -150 m 0
 244 -150 322 -82 344 -0 c 2
 755 1500 l 2
 778 1582 853 1650 950 1650 c 1024
EndSplineSet
EndChar

StartChar: uni222E
Encoding: 8750 8750 305
Width: 1100
UnlinkRmOvrlpSave: 1
Flags: MW
LayerCount: 2
Back
Fore
SplineSet
550 400 m 260
 350 400 200 551 200 750 c 260
 200 946 355 1100 550 1100 c 260
 746 1100 900 946 900 750 c 260
 900 550 750 400 550 400 c 260
EndSplineSet
Refer: 304 8747 N 1 0 0 1 0 0 2
EndChar

StartChar: similar
Encoding: 8764 8764 307
Width: 800
Flags: MW
LayerCount: 2
Back
Fore
SplineSet
150 500 m 0
 187 533 228 550 275 550 c 0
 323 550 364 533 400 500 c 152
 436 467 477 450 525 450 c 0
 572 450 613 467 650 500 c 1024
EndSplineSet
EndChar

StartChar: uni223E
Encoding: 8766 8766 309
Width: 1200
Flags: MW
LayerCount: 2
Back
Fore
SplineSet
250 358 m 0
 183 386 150 433 150 500 c 256
 150 583 217 650 300 650 c 256
 330 650 359 642 388 625 c 266
 803 383 l 274
 841 361 873 350 900 350 c 256
 983 350 1050 417 1050 500 c 256
 1050 567 1017 614 950 641 c 1024
EndSplineSet
EndChar

StartChar: uni223F
Encoding: 8767 8767 310
Width: 900
Flags: MW
LayerCount: 2
Back
Fore
SplineSet
150 500 m 256
 150 582 217 650 300 650 c 256
 382 650 450 582 450 500 c 16
 450 417 517 350 600 350 c 256
 683 350 750 417 750 500 c 1024
EndSplineSet
EndChar

StartChar: perpendicular
Encoding: 8869 8869 325
Width: 900
Flags: MW
LayerCount: 2
Back
Fore
SplineSet
150 50 m 25
 750 50 l 1053
450 950 m 25
 450 50 l 1049
EndSplineSet
EndChar

StartChar: uni2300
Encoding: 8960 8960 326
Width: 1000
UnlinkRmOvrlpSave: 1
Flags: MW
LayerCount: 2
Back
Fore
SplineSet
500 350 m 256
 308 350 150 509 150 700 c 260
 150 891 308 1050 500 1050 c 256
 692 1050 850 891 850 700 c 256
 850 509 692 350 500 350 c 256
EndSplineSet
Refer: 401 824 N 1 0 0 1 50 0 2
EndChar

StartChar: uni2316
Encoding: 8982 8982 328
Width: 2400
Flags: MW
LayerCount: 2
Back
Fore
SplineSet
550 700 m 256
 550 894 638 1057 740 1160 c 128
 842 1263 1006 1351 1200 1350 c 256
 1396 1349 1556 1266 1660 1162 c 128
 1764 1058 1850 897 1850 700 c 256
 1850 505 1764 344 1662 241 c 128
 1560 138 1394 50 1200 50 c 256
 1007 50 843 138 741 240 c 128
 639 342 550 506 550 700 c 256
1200 1750 m 29
 1200 -350 l 1025
150 700 m 25
 2250 700 l 1025
EndSplineSet
EndChar

StartChar: uni232D
Encoding: 9005 9005 329
Width: 3000
Flags: MW
LayerCount: 2
Back
Fore
SplineSet
850 700 m 132
 850 962 998 1161 1174 1263 c 132
 1274 1321 1383 1350 1500 1350 c 4
 1760 1350 1959 1201 2061 1026 c 132
 2119 926 2148 817 2148 700 c 132
 2148 438 2000 239 1824 137 c 132
 1724 79 1615 50 1498 50 c 4
 1238 50 1039 199 937 374 c 132
 879 474 850 583 850 700 c 132
1650 -350 m 29
 2850 1750 l 1029
150 -350 m 29
 1350 1750 l 1029
EndSplineSet
EndChar

StartChar: uni232F
Encoding: 9007 9007 330
Width: 2400
Flags: MW
LayerCount: 2
Back
Fore
SplineSet
550 250 m 25
 1850 250 l 1053
150 700 m 25
 2250 700 l 1049
550 1150 m 25
 1850 1150 l 1049
EndSplineSet
EndChar

StartChar: uni23E4
Encoding: 9188 9188 331
Width: 2400
Flags: MW
LayerCount: 2
Back
Fore
SplineSet
150 700 m 25
 2250 700 l 1053
EndSplineSet
EndChar

StartChar: uni23E5
Encoding: 9189 9189 332
Width: 3150
Flags: MW
LayerCount: 2
Back
Fore
SplineSet
150 51 m 25
 900 1350 l 29
 3000 1350 l 1049
3000 1349 m 25
 2250 50 l 25
 150 50 l 1049
EndSplineSet
EndChar

StartChar: circle
Encoding: 9675 9675 333
Width: 1600
Flags: MW
LayerCount: 2
Back
Fore
SplineSet
150 700 m 260
 150 961 299 1159 474 1262 c 128
 574 1321 683 1350 800 1350 c 256
 1061 1350 1261 1200 1363 1025 c 128
 1421 925 1450 817 1450 700 c 256
 1450 440 1301 239 1126 137 c 128
 1026 79 917 50 800 50 c 256
 538 50 339 198 237 374 c 128
 179 474 150 583 150 700 c 260
EndSplineSet
EndChar

StartChar: uni25EF
Encoding: 9711 9711 335
Width: 2400
Flags: MW
LayerCount: 2
Back
Fore
SplineSet
150 700 m 260
 150 1031 287 1275 458 1446 c 128
 630 1618 865 1751 1200 1750 c 256
 1532 1749 1765 1623 1940 1446 c 0
 2109 1277 2250 1033 2250 700 c 256
 2250 496 2180 302 2105 171 c 0
 1971 -56 1758 -234 1478 -312 c 128
 1388 -337 1295 -350 1200 -350 c 256
 870 -350 627 -212 458 -41 c 0
 289 128 150 368 150 700 c 260
EndSplineSet
EndChar

StartChar: uni2028
Encoding: 8232 8232 341
Width: 850
Flags: MW
LayerCount: 2
Back
Fore
SplineSet
450 350 m 25
 150 50 l 25
 450 -250 l 1049
700 950 m 25
 700 50 l 25
 150 50 l 1049
EndSplineSet
EndChar

StartChar: partialdiff
Encoding: 8706 8706 344
Width: 800
Flags: MW
LayerCount: 2
Back
Fore
SplineSet
250 1350 m 1
 450 1350 l 258
 563 1350 650 1263 650 1150 c 258
 650 300 l 258
 650 162 538 50 400 50 c 256
 262 50 150 162 150 300 c 258
 150 700 l 258
 150 837 263 950 400 950 c 256
 538 950 650 838 650 700 c 1280
EndSplineSet
EndChar

StartChar: existential
Encoding: 8707 8707 345
Width: 800
Flags: MW
LayerCount: 2
Back
Fore
SplineSet
150 700 m 29
 650 700 l 1049
150 1350 m 25
 650 1350 l 25
 650 50 l 25
 150 50 l 1049
EndSplineSet
EndChar

StartChar: uni20DD
Encoding: 8413 8413 347
Width: 1700
Flags: MW
LayerCount: 2
Back
Fore
SplineSet
1550 900 m 128
 1550 1285 1235 1600 850 1600 c 128
 465 1600 150 1285 150 900 c 128
 150 515 465 200 850 200 c 128
 1235 200 1550 515 1550 900 c 128
EndSplineSet
EndChar

StartChar: uni222F
Encoding: 8751 8751 353
Width: 1350
UnlinkRmOvrlpSave: 1
Flags: MW
LayerCount: 2
Back
Fore
SplineSet
675 400 m 256
 475 400 325 551 325 750 c 256
 325 946 480 1100 675 1100 c 256
 871 1100 1025 946 1025 750 c 256
 1025 550 875 400 675 400 c 256
EndSplineSet
Refer: 351 8748 N 1 0 0 1 0 0 2
EndChar

StartChar: uni2230
Encoding: 8752 8752 354
Width: 1600
UnlinkRmOvrlpSave: 1
Flags: MW
LayerCount: 2
Back
Fore
SplineSet
200 750 m 256
 200 946 355 1100 550 1100 c 266
 1050 1100 l 274
 1246 1100 1400 946 1400 750 c 256
 1400 550 1250 400 1050 400 c 262
 550 400 l 258
 350 400 200 551 200 750 c 256
EndSplineSet
Refer: 352 8749 N 1 0 0 1 0 0 2
EndChar

StartChar: integraltp
Encoding: 8992 8992 359
Width: 700
Flags: MW
LayerCount: 2
Back
Fore
SplineSet
550 1650 m 0
 439 1650 350 1561 350 1450 c 2
 350 -400 l 1025
EndSplineSet
EndChar

StartChar: uni239B
Encoding: 9115 9115 361
Width: 400
Flags: MW
LayerCount: 2
Back
Fore
SplineSet
150 -400 m 16
 150 568 183 1185 250 1452 c 1024
EndSplineSet
EndChar

StartChar: uni23A1
Encoding: 9121 9121 367
Width: 400
Flags: MW
LayerCount: 2
Back
Fore
SplineSet
250 1450 m 13
 150 1450 l 25
 150 -395 l 1049
EndSplineSet
EndChar

StartChar: uni23A7
Encoding: 9127 9127 373
Width: 500
Flags: MW
LayerCount: 2
Back
Fore
SplineSet
250 -395 m 5
 250 1350 l 6
 250 1401 297 1450 350 1450 c 1284
EndSplineSet
EndChar

StartChar: uni23A8
Encoding: 9128 9128 374
Width: 500
Flags: MW
TeX: 1400 400
LayerCount: 2
Back
Fore
SplineSet
250 -400 m 1
 250 400 l 2
 250 451 203 500 150 500 c 1280
250 1400 m 1
 250 600 l 2
 250 549 203 500 150 500 c 1280
EndSplineSet
EndChar

StartChar: uni23AE
Encoding: 9134 9134 380
Width: 700
Flags: MW
TeX: 1400 400
LayerCount: 2
Back
Fore
SplineSet
350 1400 m 25
 350 -400 l 1049
EndSplineSet
EndChar

StartChar: uni2A7D
Encoding: 10877 10877 381
Width: 800
Flags: MW
LayerCount: 2
Back
Fore
SplineSet
150 350 m 25
 650 100 l 1049
EndSplineSet
Refer: 31 60 N 1 0 0 1 0 100 2
EndChar

StartChar: uni0304
Encoding: 772 772 384
Width: 0
Flags: MW
AnchorPoint: "TopMark" 0 1650 basemark 0
AnchorPoint: "TopMark" 0 1350 mark 0
AnchorPoint: "Top" 0 1350 mark 0
LayerCount: 2
Back
Fore
SplineSet
-100 1350 m 29
 100 1350 l 1053
EndSplineSet
EndChar

StartChar: uni0306
Encoding: 774 774 385
Width: 0
Flags: MW
AnchorPoint: "TopMark" 0 1350 mark 0
AnchorPoint: "TopMark" 0 1650 basemark 0
AnchorPoint: "Top" 0 1350 mark 0
LayerCount: 2
Back
Fore
SplineSet
100 1350 m 0
 100 1297 53 1250 0 1250 c 0
 -52 1250 -100 1297 -100 1350 c 1024
EndSplineSet
EndChar

StartChar: tildecomb
Encoding: 771 771 386
Width: 0
Flags: MW
AnchorPoint: "TopMark" 0 1525 basemark 0
AnchorPoint: "Top" 0 1325 mark 0
LayerCount: 2
Back
Fore
SplineSet
-150 1325 m 0
 -128 1342 -103 1350 -75 1350 c 0
 -15 1350 15 1300 75 1300 c 0
 103 1300 128 1308 150 1325 c 1024
EndSplineSet
EndChar

StartChar: uni030A
Encoding: 778 778 388
Width: 0
Flags: MW
AnchorPoint: "TopMark" 0 1350 mark 0
AnchorPoint: "TopMark" 0 1650 basemark 0
AnchorPoint: "Top" 0 1350 mark 0
LayerCount: 2
Back
Fore
SplineSet
0 1150 m 4
 -55 1150 -100 1195 -100 1250 c 132
 -100 1304 -55 1350 0 1350 c 4
 56 1350 100 1305 100 1250 c 132
 100 1196 54 1150 0 1150 c 4
EndSplineSet
EndChar

StartChar: uni0307
Encoding: 775 775 389
Width: 0
Flags: MW
AnchorPoint: "TopMark" 0 1350 mark 0
AnchorPoint: "TopMark" 0 1650 basemark 0
AnchorPoint: "Top" 0 1350 mark 0
LayerCount: 2
Back
Fore
SplineSet
0 1350 m 1
 0 1351 l 1025
0 1350 m 25
 0 1350 l 25
EndSplineSet
EndChar

StartChar: uni0302
Encoding: 770 770 390
Width: 0
Flags: MW
AnchorPoint: "TopMark" 0 1650 basemark 0
AnchorPoint: "TopMark" 0 1350 mark 0
AnchorPoint: "Top" 0 1350 mark 0
LayerCount: 2
Back
Fore
SplineSet
-100 1250 m 25
 0 1350 l 25
 100 1250 l 1049
EndSplineSet
EndChar

StartChar: uni030C
Encoding: 780 780 391
Width: 0
Flags: MW
AnchorPoint: "TopMark" 0 1350 mark 0
AnchorPoint: "TopMark" 0 1650 basemark 0
AnchorPoint: "Top" 0 1350 mark 0
LayerCount: 2
Back
Fore
SplineSet
-100 1350 m 9
 0 1250 l 25
 100 1350 l 1041
EndSplineSet
EndChar

StartChar: acutecomb
Encoding: 769 769 392
Width: 0
Flags: MW
AnchorPoint: "Top" 0 1350 mark 0
AnchorPoint: "TopMark" 0 1650 mark 0
LayerCount: 2
Back
Fore
SplineSet
-50 1250 m 1
 0 1350 l 1049
EndSplineSet
EndChar

StartChar: gravecomb
Encoding: 768 768 393
Width: 0
Flags: MW
AnchorPoint: "Top" 0 1350 mark 0
AnchorPoint: "TopMark" 0 1350 mark 0
LayerCount: 2
Back
Fore
SplineSet
0 1350 m 25
 50 1250 l 1053
EndSplineSet
EndChar

StartChar: dotlessi
Encoding: 305 305 394
Width: 300
Flags: MW
AnchorPoint: "Top" 150 1350 basechar 0
LayerCount: 2
Back
Fore
SplineSet
150 950 m 25
 150 50 l 1049
EndSplineSet
EndChar

StartChar: uni0237
Encoding: 567 567 395
Width: 500
Flags: MW
AnchorPoint: "Top" 350 1350 basechar 0
LayerCount: 2
Back
Fore
SplineSet
350 950 m 1
 350 -200 l 2
 350 -282 282 -350 200 -350 c 10
 150 -350 l 1049
EndSplineSet
EndChar

StartChar: uni0337
Encoding: 823 823 400
Width: 900
Flags: MW
LayerCount: 2
Back
Fore
SplineSet
150 50 m 1
 750 950 l 1025
EndSplineSet
EndChar

StartChar: uni0338
Encoding: 824 824 401
Width: 900
Flags: MW
LayerCount: 2
Back
Fore
SplineSet
150 50 m 5
 750 1350 l 1049
EndSplineSet
EndChar

StartChar: uni0326
Encoding: 806 806 402
Width: 0
Flags: MW
AnchorPoint: "Bottom" 0 -150 mark 0
LayerCount: 2
Back
Fore
SplineSet
0 -250 m 29
 0 -150 l 1053
EndSplineSet
EndChar

StartChar: AE
Encoding: 198 198 404
Width: 1400
Flags: MW
LayerCount: 2
Back
Fore
SplineSet
750 750 m 1
 1050 750 l 1
 1050 752 l 1025
750 1350 m 1
 750 50 l 1
 1250 50 l 1025
266 450 m 1
 750 450 l 1025
1250 1350 m 25
 500 1350 l 25
 150 50 l 1049
EndSplineSet
EndChar

StartChar: ae
Encoding: 230 230 405
Width: 1300
Flags: MW
LayerCount: 2
Back
Fore
SplineSet
200 950 m 25
 500 950 l 2
 583 950 650 882 650 800 c 2
 650 200 l 1049
650 500 m 1025
650 500 m 1
 1150 500 l 1
 1150 800 l 2
 1150 882 1082 950 1000 950 c 2
 800 950 l 2
 718 950 650 882 650 800 c 1024
1150 50 m 25
 800 50 l 2
 718 50 650 118 650 200 c 1
 650 118 582 50 500 50 c 2
 300 50 l 2
 218 50 150 118 150 200 c 2
 150 350 l 2
 150 432 219 500 300 500 c 2
 650 500 l 1025
650 500 m 1025
EndSplineSet
EndChar

StartChar: uni1D3F
Encoding: 7487 7487 406
Width: 800
Flags: MW
LayerCount: 2
Back
Fore
SplineSet
650 450 m 1
 450 850 l 1029
150 850 m 1
 450 850 l 6
 573 850 650 979 650 1100 c 4
 650 1224 574 1350 451 1350 c 6
 150 1350 l 1
 150 450 l 1025
EndSplineSet
EndChar

StartChar: uni0328
Encoding: 808 808 410
Width: 0
Flags: MW
AnchorPoint: "Ogonek" 0 0 mark 0
LayerCount: 2
Back
Fore
SplineSet
100 -50 m 1
 100 -150 l 1025
EndSplineSet
EndChar

StartChar: Thorn
Encoding: 222 222 412
Width: 900
Flags: MW
LayerCount: 2
Back
Fore
SplineSet
150 1350 m 5
 150 50 l 1025
150 350 m 1
 400 350 l 2
 601 350 750 503 750 700 c 0
 750 899 597 1050 400 1050 c 10
 150 1050 l 1025
EndSplineSet
EndChar

StartChar: eth
Encoding: 240 240 414
Width: 800
Flags: MW
AnchorPoint: "Ogonek" 300 0 basechar 0
AnchorPoint: "Top" 400 1350 basechar 0
LayerCount: 2
Back
Fore
SplineSet
300 1100 m 29
 550 1250 l 1025
350 1350 m 256
 499 1201 650 989 650 700 c 1024
650 300 m 2
 650 170 538 50 400 50 c 0
 264 50 150 166 150 300 c 2
 150 700 l 2
 150 836 264 950 400 950 c 128
 536 950 650 835 650 700 c 2
 650 300 l 2
EndSplineSet
EndChar

StartChar: thorn
Encoding: 254 254 415
Width: 800
Flags: MW
LayerCount: 2
Back
Fore
SplineSet
150 -350 m 5
 150 950 l 1025
150 50 m 1
 450 50 l 2
 562 50 650 139 650 250 c 2
 650 300 l 2
 650 416 567 500 450 500 c 2
 150 500 l 1025
EndSplineSet
EndChar

StartChar: uni20BD
Encoding: 8381 8381 417
Width: 1000
Flags: MW
LayerCount: 2
Back
Fore
SplineSet
150 450 m 1
 650 450 l 1049
150 650 m 1
 500 650 l 2
 701 650 850 803 850 1000 c 0
 850 1199 697 1350 500 1350 c 10
 250 1350 l 1
 250 50 l 1049
EndSplineSet
EndChar

StartChar: Lslash
Encoding: 321 321 420
Width: 800
UnlinkRmOvrlpSave: 1
Flags: MW
LayerCount: 2
Back
Fore
SplineSet
150 650 m 5
 450 950 l 1053
EndSplineSet
Refer: 47 76 N 1 0 0 1 100 0 2
EndChar

StartChar: lslash
Encoding: 322 322 421
Width: 600
UnlinkRmOvrlpSave: 1
Flags: MW
LayerCount: 2
Back
Fore
SplineSet
250 1350 m 1
 250 200 l 2
 250 118 318 50 400 50 c 10
 450 50 l 1049
150 650 m 1
 450 950 l 1049
EndSplineSet
EndChar

StartChar: OE
Encoding: 338 338 422
Width: 1400
Flags: W
LayerCount: 2
Back
Fore
SplineSet
750 1350 m 24
 574 1350 574 1350 450 1350 c 131
 286 1350 150 1214 150 1050 c 2
 150 350 l 2
 150 186 286 50 450 50 c 131
 574 50 574 50 750 50 c 1048
750 750 m 1
 1050 750 l 1
 1050 752 l 1025
1250 1350 m 1
 750 1350 l 17
 750 50 l 1
 1250 50 l 1025
EndSplineSet
EndChar

StartChar: oe
Encoding: 339 339 423
Width: 1300
Flags: W
LayerCount: 2
Back
Fore
SplineSet
650 300 m 2
 650 164 536 50 400 50 c 128
 264 50 150 166 150 300 c 2
 150 700 l 2
 150 836 264 950 400 950 c 128
 536 950 650 836 650 700 c 1026
650 800 m 1
 650 200 l 1049
650 500 m 1
 1150 500 l 1
 1150 800 l 2
 1150 882 1082 950 1000 950 c 2
 800 950 l 2
 718 950 650 882 650 800 c 1024
1150 50 m 25
 800 50 l 2
 718 50 650 118 650 200 c 1024
EndSplineSet
EndChar

StartChar: uni030D
Encoding: 781 781 424
Width: 0
Flags: W
AnchorPoint: "TopMark" 0 1350 mark 0
AnchorPoint: "TopMark" 0 1650 basemark 0
AnchorPoint: "Top" 0 1350 mark 0
LayerCount: 2
Back
Fore
SplineSet
0 1350 m 29
 0 1250 l 1053
EndSplineSet
EndChar

StartChar: tonos
Encoding: 900 900 435
Width: 400
Flags: W
AnchorPoint: "TopMark" 150 1150 mark 0
AnchorPoint: "Tonos" 250 1350 mark 0
LayerCount: 2
Back
Fore
SplineSet
250 1350 m 25
 150 1150 l 1025
EndSplineSet
EndChar

StartChar: uni2332
Encoding: 9010 9010 437
Width: 900
Flags: W
LayerCount: 2
Back
Fore
SplineSet
150 250 m 29
 750 500 l 25
 150 750 l 25
 150 250 l 29
EndSplineSet
EndChar

StartChar: three.AltThree
Encoding: 1114115 -1 439
Width: 800
Flags: W
LayerCount: 2
Back
Fore
SplineSet
150 1350 m 1
 650 1350 l 1
 300 751 l 1025
300 750 m 0
 494 750 650 598 650 400 c 0
 650 202 494 50 300 50 c 2
 150 50 l 1041
EndSplineSet
EndChar

StartChar: uni2164.AltRomanV
Encoding: 1114116 -1 440
Width: 1200
UnlinkRmOvrlpSave: 1
Flags: W
LayerCount: 2
Back
Fore
SplineSet
500 50 m 25
 700 50 l 1049
850 1350 m 25
 1050 1350 l 1049
150 1350 m 25
 350 1350 l 1049
EndSplineSet
Refer: 273 8548 N 1 0 0 1 100 0 2
EndChar

StartChar: uni0332
Encoding: 818 818 441
Width: 0
Flags: W
LayerCount: 2
Back
Fore
SplineSet
-300 -150 m 25
 300 -150 l 1049
EndSplineSet
EndChar

StartChar: uni0305
Encoding: 773 773 444
Width: 0
Flags: W
LayerCount: 2
Back
Fore
SplineSet
-300 1550 m 25
 300 1550 l 1049
EndSplineSet
EndChar
